{
  "accessors": [
    {
      "bufferView": 2,
      "componentType": 5126,
      "count": 498,
      "max": [
        -16.733373641967773,
        4.618815898895264,
        2.615273952484131
      ],
      "min": [
        -37.0069580078125,
        -15.293578147888184,
        2.5419089794158936
      ],
      "type": "VEC3"
    },
    {
      "bufferView": 2,
      "byteOffset": 5976,
      "componentType": 5126,
      "count": 498,
      "max": [
        1.0,
        1.0,
        -0.0
      ],
      "min": [
        -1.0,
        -1.0,
        -1.0
      ],
      "type": "VEC3"
    },
    {
      "bufferView": 1,
      "componentType": 5126,
      "count": 498,
      "max": [
        0.9826719760894775,
        1.0
      ],
      "min": [
        -0.0,
        0.0
      ],
      "type": "VEC2"
    },
    {
      "bufferView": 0,
      "componentType": 5125,
      "count": 2214,
      "type": "SCALAR"
    },
    {
      "bufferView": 2,
      "byteOffset": 11952,
      "componentType": 5126,
      "count": 412,
      "max": [
        6.776535987854004,
        1.886564016342163,
        2.8793749809265137
      ],
      "min": [
        -16.517738342285156,
        -7.072136878967285,
        2.7469561100006104
      ],
      "type": "VEC3"
    },
    {
      "bufferView": 2,
      "byteOffset": 16896,
      "componentType": 5126,
      "count": 412,
      "max": [
        1.0,
        1.0,
        -0.0
      ],
      "min": [
        -1.0,
        -1.0,
        -1.0
      ],
      "type": "VEC3"
    },
    {
      "bufferView": 1,
      "byteOffset": 3984,
      "componentType": 5126,
      "count": 412,
      "max": [
        0.9994999766349792,
        0.9994999766349792
      ],
      "min": [
        0.0005000000237487257,
        0.0005000000237487257
      ],
      "type": "VEC2"
    },
    {
      "bufferView": 0,
      "byteOffset": 8856,
      "componentType": 5125,
      "count": 618,
      "type": "SCALAR"
    },
    {
      "bufferView": 2,
      "byteOffset": 21840,
      "componentType": 5126,
      "count": 3672,
      "max": [
        6.005488872528076,
        1.0732120275497437,
        2.773530960083008
      ],
      "min": [
        -66.66807556152344,
        -13.293559074401855,
        2.5396358966827393
      ],
      "type": "VEC3"
    },
    {
      "bufferView": 2,
      "byteOffset": 65904,
      "componentType": 5126,
      "count": 3672,
      "max": [
        1.0,
        1.0,
        1.0
      ],
      "min": [
        -1.0,
        -1.0,
        -0.998918354511261
      ],
      "type": "VEC3"
    },
    {
      "bufferView": 1,
      "byteOffset": 7280,
      "componentType": 5126,
      "count": 3672,
      "max": [
        0.8561090230941772,
        0.8579249978065491
      ],
      "min": [
        0.00024399999529123306,
        0.00024399999529123306
      ],
      "type": "VEC2"
    },
    {
      "bufferView": 0,
      "byteOffset": 11328,
      "componentType": 5125,
      "count": 5508,
      "type": "SCALAR"
    },
    {
      "bufferView": 2,
      "byteOffset": 109968,
      "componentType": 5126,
      "count": 564,
      "max": [
        -36.972190856933594,
        4.5611090660095215,
        2.687839984893799
      ],
      "min": [
        -54.8054313659668,
        -15.366543769836426,
        2.5419089794158936
      ],
      "type": "VEC3"
    },
    {
      "bufferView": 2,
      "byteOffset": 116736,
      "componentType": 5126,
      "count": 564,
      "max": [
        1.0,
        1.0,
        -0.0
      ],
      "min": [
        -1.0,
        -1.0,
        -1.0
      ],
      "type": "VEC3"
    },
    {
      "bufferView": 1,
      "byteOffset": 36656,
      "componentType": 5126,
      "count": 564,
      "max": [
        0.9390270113945007,
        1.0
      ],
      "min": [
        0.0,
        -0.0
      ],
      "type": "VEC2"
    },
    {
      "bufferView": 0,
      "byteOffset": 33360,
      "componentType": 5125,
      "count": 1578,
      "type": "SCALAR"
    },
    {
      "bufferView": 2,
      "byteOffset": 123504,
      "componentType": 5126,
      "count": 400,
      "max": [
        -55.19462585449219,
        4.5611090660095215,
        2.687839984893799
      ],
      "min": [
        -68.89769744873047,
        -15.366543769836426,
        2.5419089794158936
      ],
      "type": "VEC3"
    },
    {
      "bufferView": 2,
      "byteOffset": 128304,
      "componentType": 5126,
      "count": 400,
      "max": [
        1.0,
        1.0,
        -0.0
      ],
      "min": [
        -1.0,
        -1.0,
        -1.0
      ],
      "type": "VEC3"
    },
    {
      "bufferView": 1,
      "byteOffset": 41168,
      "componentType": 5126,
      "count": 400,
      "max": [
        0.7312279939651489,
        1.0
      ],
      "min": [
        0.0,
        -0.0
      ],
      "type": "VEC2"
    },
    {
      "bufferView": 0,
      "byteOffset": 39672,
      "componentType": 5125,
      "count": 1014,
      "type": "SCALAR"
    },
    {
      "bufferView": 2,
      "byteOffset": 133104,
      "componentType": 5126,
      "count": 574,
      "max": [
        0.13270600140094757,
        0.14770500361919403,
        2.7340190410614014
      ],
      "min": [
        -65.63433837890625,
        -11.75629711151123,
        2.526520013809204
      ],
      "type": "VEC3"
    },
    {
      "bufferView": 2,
      "byteOffset": 139992,
      "componentType": 5126,
      "count": 574,
      "max": [
        0.9992391467094421,
        1.0,
        0.8331103324890137
      ],
      "min": [
        -0.5532917976379395,
        -1.0,
        -0.9979501962661743
      ],
      "type": "VEC3"
    },
    {
      "bufferView": 1,
      "byteOffset": 44368,
      "componentType": 5126,
      "count": 574,
      "max": [
        0.1347070038318634,
        0.9997289776802063
      ],
      "min": [
        0.00024399999529123306,
        0.39668598771095276
      ],
      "type": "VEC2"
    },
    {
      "bufferView": 0,
      "byteOffset": 43728,
      "componentType": 5125,
      "count": 2352,
      "type": "SCALAR"
    },
    {
      "bufferView": 2,
      "byteOffset": 146880,
      "componentType": 5126,
      "count": 300,
      "max": [
        -36.69644546508789,
        4.378543853759766,
        2.386245012283325
      ],
      "min": [
        -49.77610397338867,
        -13.106454849243164,
        2.230370044708252
      ],
      "type": "VEC3"
    },
    {
      "bufferView": 2,
      "byteOffset": 150480,
      "componentType": 5126,
      "count": 300,
      "max": [
        1.0,
        1.0,
        0.9999996423721313
      ],
      "min": [
        -1.0,
        -1.0,
        -0.9999996423721313
      ],
      "type": "VEC3"
    },
    {
      "bufferView": 1,
      "byteOffset": 48960,
      "componentType": 5126,
      "count": 300,
      "max": [
        0.5711460113525391,
        1.0
      ],
      "min": [
        -0.0,
        -0.0
      ],
      "type": "VEC2"
    },
    {
      "bufferView": 0,
      "byteOffset": 53136,
      "componentType": 5125,
      "count": 1044,
      "type": "SCALAR"
    },
    {
      "bufferView": 2,
      "byteOffset": 154080,
      "componentType": 5126,
      "count": 8,
      "max": [
        -36.69731903076172,
        4.328404903411865,
        2.374202013015747
      ],
      "min": [
        -49.76301193237305,
        -13.093490600585938,
        2.2419259548187256
      ],
      "type": "VEC3"
    },
    {
      "bufferView": 2,
      "byteOffset": 154176,
      "componentType": 5126,
      "count": 8,
      "max": [
        1.0,
        0.0,
        -0.0
      ],
      "min": [
        -0.0,
        -1.0,
        -0.0
      ],
      "type": "VEC3"
    },
    {
      "bufferView": 1,
      "byteOffset": 51360,
      "componentType": 5126,
      "count": 8,
      "max": [
        0.7359480261802673,
        0.8462960124015808
      ],
      "min": [
        0.5577849745750427,
        0.3260729908943176
      ],
      "type": "VEC2"
    },
    {
      "bufferView": 0,
      "byteOffset": 57312,
      "componentType": 5125,
      "count": 12,
      "type": "SCALAR"
    },
    {
      "bufferView": 2,
      "byteOffset": 154272,
      "componentType": 5126,
      "count": 6986,
      "max": [
        -2.172722101211548,
        -1.3911889791488647,
        1.1150130033493042
      ],
      "min": [
        -67.37936401367188,
        -15.509243965148926,
        -0.8812249898910522
      ],
      "type": "VEC3"
    },
    {
      "bufferView": 2,
      "byteOffset": 238104,
      "componentType": 5126,
      "count": 6986,
      "max": [
        1.0,
        1.0,
        1.0
      ],
      "min": [
        -1.0,
        -1.0,
        -1.0
      ],
      "type": "VEC3"
    },
    {
      "bufferView": 1,
      "byteOffset": 51424,
      "componentType": 5126,
      "count": 6986,
      "max": [
        0.9994660019874573,
        0.9997559785842896
      ],
      "min": [
        0.00024399999529123306,
        0.00024399999529123306
      ],
      "type": "VEC2"
    },
    {
      "bufferView": 0,
      "byteOffset": 57360,
      "componentType": 5125,
      "count": 16968,
      "type": "SCALAR"
    },
    {
      "bufferView": 2,
      "byteOffset": 321936,
      "componentType": 5126,
      "count": 2106,
      "max": [
        -0.4248499870300293,
        0.7238749861717224,
        2.7450459003448486
      ],
      "min": [
        -67.71642303466797,
        -13.818920135498047,
        2.4433960914611816
      ],
      "type": "VEC3"
    },
    {
      "bufferView": 2,
      "byteOffset": 347208,
      "componentType": 5126,
      "count": 2106,
      "max": [
        1.0,
        1.0,
        -0.0
      ],
      "min": [
        -1.0,
        -1.0,
        -1.0
      ],
      "type": "VEC3"
    },
    {
      "bufferView": 1,
      "byteOffset": 107312,
      "componentType": 5126,
      "count": 2106,
      "max": [
        0.7812430262565613,
        0.8844299912452698
      ],
      "min": [
        0.00024399999529123306,
        0.00024399999529123306
      ],
      "type": "VEC2"
    },
    {
      "bufferView": 0,
      "byteOffset": 125232,
      "componentType": 5125,
      "count": 9216,
      "type": "SCALAR"
    },
    {
      "bufferView": 2,
      "byteOffset": 372480,
      "componentType": 5126,
      "count": 3220,
      "max": [
        1.2743090391159058,
        -3.478545904159546,
        0.2608250081539154
      ],
      "min": [
        -42.084922790527344,
        -8.65174388885498,
        0.1351500004529953
      ],
      "type": "VEC3"
    },
    {
      "bufferView": 2,
      "byteOffset": 411120,
      "componentType": 5126,
      "count": 3220,
      "max": [
        1.0,
        1.0,
        1.0
      ],
      "min": [
        -1.0,
        -1.0,
        -1.0
      ],
      "type": "VEC3"
    },
    {
      "bufferView": 1,
      "byteOffset": 124160,
      "componentType": 5126,
      "count": 3220,
      "max": [
        0.9637960195541382,
        1.0
      ],
      "min": [
        -1.700000029813964e-05,
        -0.0
      ],
      "type": "VEC2"
    },
    {
      "bufferView": 0,
      "byteOffset": 162096,
      "componentType": 5125,
      "count": 11904,
      "type": "SCALAR"
    },
    {
      "bufferView": 2,
      "byteOffset": 449760,
      "componentType": 5126,
      "count": 7504,
      "max": [
        0.13598300516605377,
        0.20752599835395813,
        2.7522730827331543
      ],
      "min": [
        -65.74913787841797,
        -11.81778335571289,
        2.505186080932617
      ],
      "type": "VEC3"
    },
    {
      "bufferView": 2,
      "byteOffset": 539808,
      "componentType": 5126,
      "count": 7504,
      "max": [
        1.0,
        1.0,
        1.0
      ],
      "min": [
        -1.0,
        -1.0,
        -1.0
      ],
      "type": "VEC3"
    },
    {
      "bufferView": 1,
      "byteOffset": 149920,
      "componentType": 5126,
      "count": 7504,
      "max": [
        0.9983339905738831,
        0.9997559785842896
      ],
      "min": [
        0.00024399999529123306,
        0.00024399999529123306
      ],
      "type": "VEC2"
    },
    {
      "bufferView": 0,
      "byteOffset": 209712,
      "componentType": 5125,
      "count": 23436,
      "type": "SCALAR"
    },
    {
      "bufferView": 2,
      "byteOffset": 629856,
      "componentType": 5126,
      "count": 295,
      "max": [
        6.7765350341796875,
        1.886564016342163,
        2.7469570636749268
      ],
      "min": [
        -16.733844757080078,
        -7.072137832641602,
        -0.11900799721479416
      ],
      "type": "VEC3"
    },
    {
      "bufferView": 2,
      "byteOffset": 633396,
      "componentType": 5126,
      "count": 295,
      "max": [
        1.0,
        1.0,
        1.0
      ],
      "min": [
        -1.0,
        -1.0,
        -1.0
      ],
      "type": "VEC3"
    },
    {
      "bufferView": 1,
      "byteOffset": 209952,
      "componentType": 5126,
      "count": 295,
      "max": [
        1.0,
        0.9758080244064331
      ],
      "min": [
        0.0,
        0.0
      ],
      "type": "VEC2"
    },
    {
      "bufferView": 0,
      "byteOffset": 303456,
      "componentType": 5125,
      "count": 846,
      "type": "SCALAR"
    },
    {
      "bufferView": 2,
      "byteOffset": 636936,
      "componentType": 5126,
      "count": 7016,
      "max": [
        -2.6913681030273438,
        0.8531370162963867,
        2.7469570636749268
      ],
      "min": [
        -69.04647827148438,
        -12.55276870727539,
        1.699404001235962
      ],
      "type": "VEC3"
    },
    {
      "bufferView": 2,
      "byteOffset": 721128,
      "componentType": 5126,
      "count": 7016,
      "max": [
        1.0,
        1.0,
        1.0
      ],
      "min": [
        -1.0,
        -1.0,
        -1.0
      ],
      "type": "VEC3"
    },
    {
      "bufferView": 1,
      "byteOffset": 212312,
      "componentType": 5126,
      "count": 7016,
      "max": [
        0.9977970123291016,
        0.9997559785842896
      ],
      "min": [
        0.00024399999529123306,
        0.00024399999529123306
      ],
      "type": "VEC2"
    },
    {
      "bufferView": 0,
      "byteOffset": 306840,
      "componentType": 5125,
      "count": 10008,
      "type": "SCALAR"
    },
    {
      "bufferView": 2,
      "byteOffset": 805320,
      "componentType": 5126,
      "count": 190,
      "max": [
        -16.733844757080078,
        4.3756608963012695,
        2.554172992706299
      ],
      "min": [
        -36.74736404418945,
        -15.113537788391113,
        -0.12808899581432343
      ],
      "type": "VEC3"
    },
    {
      "bufferView": 2,
      "byteOffset": 807600,
      "componentType": 5126,
      "count": 190,
      "max": [
        1.0,
        1.0,
        1.0
      ],
      "min": [
        -1.0,
        -1.0,
        -1.0
      ],
      "type": "VEC3"
    },
    {
      "bufferView": 1,
      "byteOffset": 268440,
      "componentType": 5126,
      "count": 190,
      "max": [
        0.9997559785842896,
        0.9705939888954163
      ],
      "min": [
        0.00024399999529123306,
        0.00024399999529123306
      ],
      "type": "VEC2"
    },
    {
      "bufferView": 0,
      "byteOffset": 346872,
      "componentType": 5125,
      "count": 384,
      "type": "SCALAR"
    },
    {
      "bufferView": 2,
      "byteOffset": 809880,
      "componentType": 5126,
      "count": 834,
      "max": [
        -0.5005760192871094,
        0.6481519937515259,
        2.6768150329589844
      ],
      "min": [
        -67.64070129394531,
        -13.743195533752441,
        2.326817035675049
      ],
      "type": "VEC3"
    },
    {
      "bufferView": 2,
      "byteOffset": 819888,
      "componentType": 5126,
      "count": 834,
      "max": [
        1.0,
        1.0,
        -0.0
      ],
      "min": [
        -1.0,
        -1.0,
        -1.0
      ],
      "type": "VEC3"
    },
    {
      "bufferView": 1,
      "byteOffset": 269960,
      "componentType": 5126,
      "count": 834,
      "max": [
        0.9984139800071716,
        0.9997559785842896
      ],
      "min": [
        0.49937599897384644,
        0.00024500000290572643
      ],
      "type": "VEC2"
    },
    {
      "bufferView": 0,
      "byteOffset": 348408,
      "componentType": 5125,
      "count": 4800,
      "type": "SCALAR"
    },
    {
      "bufferView": 2,
      "byteOffset": 829896,
      "componentType": 5126,
      "count": 22,
      "max": [
        6.7765350341796875,
        1.886564016342163,
        -0.11900799721479416
      ],
      "min": [
        -16.779356002807617,
        -7.072136878967285,
        -0.11900799721479416
      ],
      "type": "VEC3"
    },
    {
      "bufferView": 2,
      "byteOffset": 830160,
      "componentType": 5126,
      "count": 22,
      "max": [
        -0.0,
        0.0,
        1.0
      ],
      "min": [
        -0.0,
        0.0,
        1.0
      ],
      "type": "VEC3"
    },
    {
      "bufferView": 1,
      "byteOffset": 276632,
      "componentType": 5126,
      "count": 22,
      "max": [
        0.9584230184555054,
        0.9997559785842896
      ],
      "min": [
        0.00024399999529123306,
        0.00024399999529123306
      ],
      "type": "VEC2"
    },
    {
      "bufferView": 0,
      "byteOffset": 367608,
      "componentType": 5125,
      "count": 48,
      "type": "SCALAR"
    },
    {
      "bufferView": 2,
      "byteOffset": 830424,
      "componentType": 5126,
      "count": 10,
      "max": [
        -16.779354095458984,
        4.413297176361084,
        -0.11900799721479416
      ],
      "min": [
        -36.861942291259766,
        -15.431696891784668,
        -0.11900799721479416
      ],
      "type": "VEC3"
    },
    {
      "bufferView": 2,
      "byteOffset": 830544,
      "componentType": 5126,
      "count": 10,
      "max": [
        -0.0,
        0.0,
        1.0
      ],
      "min": [
        -0.0,
        0.0,
        1.0
      ],
      "type": "VEC3"
    },
    {
      "bufferView": 1,
      "byteOffset": 276808,
      "componentType": 5126,
      "count": 10,
      "max": [
        0.9645649790763855,
        0.9531530141830444
      ],
      "min": [
        0.0,
        0.0
      ],
      "type": "VEC2"
    },
    {
      "bufferView": 0,
      "byteOffset": 367800,
      "componentType": 5125,
      "count": 24,
      "type": "SCALAR"
    },
    {
      "bufferView": 2,
      "byteOffset": 830664,
      "componentType": 5126,
      "count": 10,
      "max": [
        -36.86194610595703,
        4.5733771324157715,
        -0.11900799721479416
      ],
      "min": [
        -54.98919677734375,
        -15.201376914978027,
        -0.11900799721479416
      ],
      "type": "VEC3"
    },
    {
      "bufferView": 2,
      "byteOffset": 830784,
      "componentType": 5126,
      "count": 10,
      "max": [
        -0.0,
        0.0,
        1.0
      ],
      "min": [
        -0.0,
        0.0,
        1.0
      ],
      "type": "VEC3"
    },
    {
      "bufferView": 1,
      "byteOffset": 276888,
      "componentType": 5126,
      "count": 10,
      "max": [
        0.8803889751434326,
        1.0
      ],
      "min": [
        0.0,
        0.03959599882364273
      ],
      "type": "VEC2"
    },
    {
      "bufferView": 0,
      "byteOffset": 367896,
      "componentType": 5125,
      "count": 24,
      "type": "SCALAR"
    },
    {
      "bufferView": 2,
      "byteOffset": 830904,
      "componentType": 5126,
      "count": 8,
      "max": [
        -54.98919677734375,
        4.484496116638184,
        -0.11900799721479416
      ],
      "min": [
        -68.86964416503906,
        -15.351601600646973,
        -0.11900799721479416
      ],
      "type": "VEC3"
    },
    {
      "bufferView": 2,
      "byteOffset": 831000,
      "componentType": 5126,
      "count": 8,
      "max": [
        -0.0,
        0.0,
        1.0
      ],
      "min": [
        -0.0,
        0.0,
        1.0
      ],
      "type": "VEC3"
    },
    {
      "bufferView": 1,
      "byteOffset": 276968,
      "componentType": 5126,
      "count": 8,
      "max": [
        0.6907920241355896,
        0.956404983997345
      ],
      "min": [
        0.02154099941253662,
        0.0
      ],
      "type": "VEC2"
    },
    {
      "bufferView": 0,
      "byteOffset": 367992,
      "componentType": 5125,
      "count": 18,
      "type": "SCALAR"
    },
    {
      "bufferView": 2,
      "byteOffset": 831096,
      "componentType": 5126,
      "count": 4536,
      "max": [
        2.984734058380127,
        -0.4768010079860687,
        2.8182249069213867
      ],
      "min": [
        -64.40312194824219,
        -11.028034210205078,
        2.536978006362915
      ],
      "type": "VEC3"
    },
    {
      "bufferView": 2,
      "byteOffset": 885528,
      "componentType": 5126,
      "count": 4536,
      "max": [
        1.0,
        1.0,
        1.0
      ],
      "min": [
        -1.0,
        -1.0,
        -1.0
      ],
      "type": "VEC3"
    },
    {
      "bufferView": 1,
      "byteOffset": 277032,
      "componentType": 5126,
      "count": 4536,
      "max": [
        0.9997559785842896,
        0.9969419836997986
      ],
      "min": [
        0.00024399999529123306,
        0.00024399999529123306
      ],
      "type": "VEC2"
    },
    {
      "bufferView": 0,
      "byteOffset": 368064,
      "componentType": 5125,
      "count": 9156,
      "type": "SCALAR"
    },
    {
      "bufferView": 2,
      "byteOffset": 939960,
      "componentType": 5126,
      "count": 933,
      "max": [
        -54.9873161315918,
        4.3756561279296875,
        2.5419089794158936
      ],
      "min": [
        -74.7530288696289,
        -15.20137882232666,
        -0.12808899581432343
      ],
      "type": "VEC3"
    },
    {
      "bufferView": 2,
      "byteOffset": 951156,
      "componentType": 5126,
      "count": 933,
      "max": [
        1.0,
        1.0,
        1.0
      ],
      "min": [
        -1.0,
        -1.0,
        -1.0
      ],
      "type": "VEC3"
    },
    {
      "bufferView": 1,
      "byteOffset": 313320,
      "componentType": 5126,
      "count": 933,
      "max": [
        0.8212080001831055,
        0.9997559785842896
      ],
      "min": [
        0.00024399999529123306,
        0.00024399999529123306
      ],
      "type": "VEC2"
    },
    {
      "bufferView": 0,
      "byteOffset": 404688,
      "componentType": 5125,
      "count": 2469,
      "type": "SCALAR"
    },
    {
      "bufferView": 2,
      "byteOffset": 962352,
      "componentType": 5126,
      "count": 792,
      "max": [
        6.7765350341796875,
        4.375657081604004,
        2.7469570636749268
      ],
      "min": [
        -68.7508316040039,
        -15.201377868652344,
        -0.11881499737501144
      ],
      "type": "VEC3"
    },
    {
      "bufferView": 2,
      "byteOffset": 971856,
      "componentType": 5126,
      "count": 792,
      "max": [
        1.0,
        1.0,
        1.0
      ],
      "min": [
        -1.0,
        -1.0,
        -1.0
      ],
      "type": "VEC3"
    },
    {
      "bufferView": 1,
      "byteOffset": 320784,
      "componentType": 5126,
      "count": 792,
      "max": [
        0.5349680185317993,
        0.9997559785842896
      ],
      "min": [
        0.00024399999529123306,
        0.00024399999529123306
      ],
      "type": "VEC2"
    },
    {
      "bufferView": 0,
      "byteOffset": 414564,
      "componentType": 5125,
      "count": 1368,
      "type": "SCALAR"
    },
    {
      "bufferView": 2,
      "byteOffset": 981360,
      "componentType": 5126,
      "count": 1036,
      "max": [
        -36.945865631103516,
        5.104747772216797,
        2.554172992706299
      ],
      "min": [
        -54.9873161315918,
        -15.201377868652344,
        -0.12808899581432343
      ],
      "type": "VEC3"
    },
    {
      "bufferView": 2,
      "byteOffset": 993792,
      "componentType": 5126,
      "count": 1036,
      "max": [
        1.0,
        1.0,
        1.0
      ],
      "min": [
        -1.0,
        -1.0,
        -1.0
      ],
      "type": "VEC3"
    },
    {
      "bufferView": 1,
      "byteOffset": 327120,
      "componentType": 5126,
      "count": 1036,
      "max": [
        0.9997559785842896,
        0.9182010293006897
      ],
      "min": [
        0.00024399999529123306,
        0.00024399999529123306
      ],
      "type": "VEC2"
    },
    {
      "bufferView": 0,
      "byteOffset": 420036,
      "componentType": 5125,
      "count": 2589,
      "type": "SCALAR"
    },
    {
      "bufferView": 2,
      "byteOffset": 1006224,
      "componentType": 5126,
      "count": 216,
      "max": [
        5.992125988006592,
        1.0598160028457642,
        2.74446702003479
      ],
      "min": [
        -66.654052734375,
        -13.279373168945313,
        2.5412230491638184
      ],
      "type": "VEC3"
    },
    {
      "bufferView": 2,
      "byteOffset": 1008816,
      "componentType": 5126,
      "count": 216,
      "max": [
        -0.0,
        0.0,
        -1.0
      ],
      "min": [
        -0.0,
        0.0,
        -1.0
      ],
      "type": "VEC3"
    },
    {
      "bufferView": 1,
      "byteOffset": 335408,
      "componentType": 5126,
      "count": 216,
      "max": [
        0.9990890026092529,
        0.9997559785842896
      ],
      "min": [
        0.00024399999529123306,
        0.00024399999529123306
      ],
      "type": "VEC2"
    },
    {
      "bufferView": 0,
      "byteOffset": 430392,
      "componentType": 5125,
      "count": 324,
      "type": "SCALAR"
    },
    {
      "bufferView": 2,
      "byteOffset": 1011408,
      "componentType": 5126,
      "count": 543,
      "max": [
        6.218544006347656,
        4.3756561279296875,
        1.0623559951782227
      ],
      "min": [
        -55.327816009521484,
        -15.11423110961914,
        0.16019099950790405
      ],
      "type": "VEC3"
    },
    {
      "bufferView": 2,
      "byteOffset": 1017924,
      "componentType": 5126,
      "count": 543,
      "max": [
        1.0,
        1.0,
        1.0
      ],
      "min": [
        -1.0,
        -1.0,
        -1.0
      ],
      "type": "VEC3"
    },
    {
      "bufferView": 1,
      "byteOffset": 337136,
      "componentType": 5126,
      "count": 543,
      "max": [
        0.7250069975852966,
        1.0
      ],
      "min": [
        0.0,
        0.0
      ],
      "type": "VEC2"
    },
    {
      "bufferView": 0,
      "byteOffset": 431688,
      "componentType": 5125,
      "count": 816,
      "type": "SCALAR"
    },
    {
      "bufferView": 2,
      "byteOffset": 1024440,
      "componentType": 5126,
      "count": 7445,
      "max": [
        -1.0119129419326782,
        1.7551389932632446,
        1.2117819786071777
      ],
      "min": [
        -68.83958435058594,
        -15.042831420898438,
        -1.264294981956482
      ],
      "type": "VEC3"
    },
    {
      "bufferView": 2,
      "byteOffset": 1113780,
      "componentType": 5126,
      "count": 7445,
      "max": [
        1.0,
        1.0,
        1.0
      ],
      "min": [
        -1.0,
        -1.0,
        -1.0
      ],
      "type": "VEC3"
    },
    {
      "bufferView": 1,
      "byteOffset": 341480,
      "componentType": 5126,
      "count": 7445,
      "max": [
        0.9997559785842896,
        0.9634810090065002
      ],
      "min": [
        0.00024399999529123306,
        0.00024399999529123306
      ],
      "type": "VEC2"
    },
    {
      "bufferView": 0,
      "byteOffset": 434952,
      "componentType": 5125,
      "count": 37320,
      "type": "SCALAR"
    },
    {
      "bufferView": 2,
      "byteOffset": 1203120,
      "componentType": 5126,
      "count": 3157,
      "max": [
        -36.738067626953125,
        4.575098991394043,
        2.1580419540405273
      ],
      "min": [
        -50.716670989990234,
        -14.948253631591797,
        -0.11900799721479416
      ],
      "type": "VEC3"
    },
    {
      "bufferView": 2,
      "byteOffset": 1241004,
      "componentType": 5126,
      "count": 3157,
      "max": [
        1.0,
        1.0,
        1.0
      ],
      "min": [
        -1.0,
        -1.0,
        -1.0
      ],
      "type": "VEC3"
    },
    {
      "bufferView": 1,
      "byteOffset": 401040,
      "componentType": 5126,
      "count": 3157,
      "max": [
        0.7170330286026001,
        0.9997559785842896
      ],
      "min": [
        0.00024399999529123306,
        0.0002610000083222985
      ],
      "type": "VEC2"
    },
    {
      "bufferView": 0,
      "byteOffset": 584232,
      "componentType": 5125,
      "count": 5040,
      "type": "SCALAR"
    },
    {
      "bufferView": 2,
      "byteOffset": 1278888,
      "componentType": 5126,
      "count": 18010,
      "max": [
        -36.943992614746094,
        4.65181303024292,
        2.0811429023742676
      ],
      "min": [
        -50.64705276489258,
        -14.952564239501953,
        -0.11863499879837036
      ],
      "type": "VEC3"
    },
    {
      "bufferView": 2,
      "byteOffset": 1495008,
      "componentType": 5126,
      "count": 18010,
      "max": [
        1.0,
        1.0,
        1.0
      ],
      "min": [
        -1.0,
        -1.0,
        -1.0
      ],
      "type": "VEC3"
    },
    {
      "bufferView": 1,
      "byteOffset": 426296,
      "componentType": 5126,
      "count": 18010,
      "max": [
        0.7181400060653687,
        0.9997529983520508
      ],
      "min": [
        0.00024399999529123306,
        0.00024399999529123306
      ],
      "type": "VEC2"
    },
    {
      "bufferView": 0,
      "byteOffset": 604392,
      "componentType": 5125,
      "count": 58572,
      "type": "SCALAR"
    }
  ],
  "asset": {
    "extras": {
      "author": "carlcapu9 (https://sketchfab.com/carlcapu9)",
      "license": "CC-BY-4.0 (http://creativecommons.org/licenses/by/4.0/)",
      "source": "https://sketchfab.com/3d-models/backrooms-vr-d9b98eca8d064d0eafcd7f5484bb61ed",
      "title": "Backrooms VR"
    },
    "generator": "Sketchfab-17.15.0",
    "version": "2.0"
  },
  "bufferViews": [
    {
      "buffer": 0,
      "byteLength": 838680,
      "name": "floatBufferViews",
      "target": 34963
    },
    {
      "buffer": 0,
      "byteLength": 570376,
      "byteOffset": 838680,
      "byteStride": 8,
      "name": "floatBufferViews",
      "target": 34962
    },
    {
      "buffer": 0,
      "byteLength": 1711128,
      "byteOffset": 1409056,
      "byteStride": 12,
      "name": "floatBufferViews",
      "target": 34962
    }
  ],
  "buffers": [
    {
      "byteLength": 3120184,
      "uri": "scene.bin"
    }
  ],
  "extensionsUsed": [
    "KHR_materials_unlit",
    "KHR_materials_emissive_strength"
  ],
  "images": [
    {
      "uri": "textures/ArmChair_1_baseColor.png"
    },
    {
      "uri": "textures/Ceiling_1_baseColor.png"
    },
    {
      "uri": "textures/Ceiling_2_baseColor.png"
    },
    {
      "uri": "textures/Ceiling_3_baseColor.png"
    },
    {
      "uri": "textures/Ceiling_4_baseColor.png"
    },
    {
      "uri": "textures/Ceiling_Lamp_baseColor.png"
    },
    {
      "uri": "textures/Exit_Door_baseColor.png"
    },
    {
      "uri": "textures/Exit_Sign_baseColor.png"
    },
    {
      "uri": "textures/Exit_Traslucent_baseColor.png"
    },
    {
      "uri": "textures/Furniture_1_baseColor.png"
    },
    {
      "uri": "textures/Lamp_baseColor.png"
    },
    {
      "uri": "textures/Moquette_1_baseColor.png"
    },
    {
      "uri": "textures/Moquette_2_baseColor.png"
    },
    {
      "uri": "textures/Moquette_3_baseColor.png"
    },
    {
      "uri": "textures/Moquette_4_baseColor.png"
    },
    {
      "uri": "textures/Sensor_baseColor.png"
    },
    {
      "uri": "textures/Socket_1_baseColor.png"
    },
    {
      "uri": "textures/Translucent_baseColor.png"
    },
    {
      "uri": "textures/Traslucent_baseColor.png"
    },
    {
      "uri": "textures/Vent_1_baseColor.png"
    },
    {
      "uri": "textures/Wall_1_baseColor.png"
    },
    {
      "uri": "textures/Wall_2_baseColor.png"
    },
    {
      "uri": "textures/Wall_3_baseColor.png"
    },
    {
      "uri": "textures/Wall_4_baseColor.png"
    },
    {
      "uri": "textures/Window_1_baseColor.png"
    },
    {
      "uri": "textures/Withe_baseColor.png"
    },
    {
      "uri": "textures/Wood_baseColor.png"
    }
  ],
  "materials": [
    {
      "doubleSided": true,
      "extensions": {
        "KHR_materials_unlit": {}
      },
      "name": "ArmChair_1",
      "pbrMetallicRoughness": {
        "baseColorTexture": {
          "index": 0
        },
        "metallicFactor": 0.0
      }
    },
    {
      "extensions": {
        "KHR_materials_unlit": {}
      },
      "name": "Ceiling_1",
      "pbrMetallicRoughness": {
        "baseColorTexture": {
          "index": 1
        },
        "metallicFactor": 0.0
      }
    },
    {
      "extensions": {
        "KHR_materials_unlit": {}
      },
      "name": "Ceiling_2",
      "pbrMetallicRoughness": {
        "baseColorTexture": {
          "index": 2
        },
        "metallicFactor": 0.0
      }
    },
    {
      "extensions": {
        "KHR_materials_unlit": {}
      },
      "name": "Ceiling_3",
      "pbrMetallicRoughness": {
        "baseColorTexture": {
          "index": 3
        },
        "metallicFactor": 0.0
      }
    },
    {
      "extensions": {
        "KHR_materials_unlit": {}
      },
      "name": "Ceiling_4",
      "pbrMetallicRoughness": {
        "baseColorTexture": {
          "index": 4
        },
        "metallicFactor": 0.0
      }
    },
    {
      "doubleSided": true,
      "extensions": {
        "KHR_materials_unlit": {}
      },
      "name": "Ceiling_Lamp",
      "pbrMetallicRoughness": {
        "baseColorTexture": {
          "index": 5
        },
        "metallicFactor": 0.0
      }
    },
    {
      "doubleSided": true,
      "emissiveFactor": [
        1.0,
        0.00461797,
        0.0
      ],
      "extensions": {
        "KHR_materials_emissive_strength": {
          "emissiveStrength": 10.0
        },
        "KHR_materials_unlit": {}
      },
      "name": "Emission_Red",
      "pbrMetallicRoughness": {
        "baseColorFactor": [
          1.0,
          0.000318933,
          0.0,
          1.0
        ],
        "metallicFactor": 0.0
      }
    },
    {
      "doubleSided": true,
      "extensions": {
        "KHR_materials_unlit": {}
      },
      "name": "Exit_Door",
      "pbrMetallicRoughness": {
        "baseColorTexture": {
          "index": 6
        },
        "metallicFactor": 0.0
      }
    },
    {
      "doubleSided": true,
      "extensions": {
        "KHR_materials_unlit": {}
      },
      "name": "Exit_Sign",
      "pbrMetallicRoughness": {
        "baseColorTexture": {
          "index": 7
        },
        "metallicFactor": 0.0
      }
    },
    {
      "doubleSided": true,
      "extensions": {
        "KHR_materials_unlit": {}
      },
      "name": "Exit_Traslucent",
      "pbrMetallicRoughness": {
        "baseColorTexture": {
          "index": 8
        },
        "metallicFactor": 0.0
      }
    },
    {
      "doubleSided": true,
      "extensions": {
        "KHR_materials_unlit": {}
      },
      "name": "Furniture_1",
      "pbrMetallicRoughness": {
        "baseColorTexture": {
          "index": 9
        },
        "metallicFactor": 0.0
      }
    },
    {
      "doubleSided": true,
      "extensions": {
        "KHR_materials_unlit": {}
      },
      "name": "Lamp",
      "pbrMetallicRoughness": {
        "baseColorTexture": {
          "index": 10
        },
        "metallicFactor": 0.0
      }
    },
    {
      "extensions": {
        "KHR_materials_unlit": {}
      },
      "name": "Moquette_1",
      "pbrMetallicRoughness": {
        "baseColorTexture": {
          "index": 11
        },
        "metallicFactor": 0.0
      }
    },
    {
      "extensions": {
        "KHR_materials_unlit": {}
      },
      "name": "Moquette_2",
      "pbrMetallicRoughness": {
        "baseColorTexture": {
          "index": 12
        },
        "metallicFactor": 0.0
      }
    },
    {
      "extensions": {
        "KHR_materials_unlit": {}
      },
      "name": "Moquette_3",
      "pbrMetallicRoughness": {
        "baseColorTexture": {
          "index": 13
        },
        "metallicFactor": 0.0
      }
    },
    {
      "extensions": {
        "KHR_materials_unlit": {}
      },
      "name": "Moquette_4",
      "pbrMetallicRoughness": {
        "baseColorTexture": {
          "index": 14
        },
        "metallicFactor": 0.0
      }
    },
    {
      "doubleSided": true,
      "extensions": {
        "KHR_materials_unlit": {}
      },
      "name": "Sensor",
      "pbrMetallicRoughness": {
        "baseColorTexture": {
          "index": 15
        },
        "metallicFactor": 0.0
      }
    },
    {
      "doubleSided": true,
      "extensions": {
        "KHR_materials_unlit": {}
      },
      "name": "Socket_1",
      "pbrMetallicRoughness": {
        "baseColorTexture": {
          "index": 16
        },
        "metallicFactor": 0.0
      }
    },
    {
      "doubleSided": true,
      "emissiveFactor": [
        1.0,
        1.0,
        1.0
      ],
      "extensions": {
        "KHR_materials_emissive_strength": {
          "emissiveStrength": 10.0
        },
        "KHR_materials_unlit": {}
      },
      "name": "Translucent",
      "pbrMetallicRoughness": {
        "baseColorTexture": {
          "index": 17
        },
        "metallicFactor": 0.0
      }
    },
    {
      "doubleSided": true,
      "extensions": {
        "KHR_materials_unlit": {}
      },
      "name": "Traslucent",
      "pbrMetallicRoughness": {
        "baseColorTexture": {
          "index": 18
        },
        "metallicFactor": 0.0
      }
    },
    {
      "doubleSided": true,
      "extensions": {
        "KHR_materials_unlit": {}
      },
      "name": "Vent_1",
      "pbrMetallicRoughness": {
        "baseColorTexture": {
          "index": 19
        },
        "metallicFactor": 0.0
      }
    },
    {
      "extensions": {
        "KHR_materials_unlit": {}
      },
      "name": "Wall_1",
      "pbrMetallicRoughness": {
        "baseColorTexture": {
          "index": 20
        },
        "metallicFactor": 0.0
      }
    },
    {
      "extensions": {
        "KHR_materials_unlit": {}
      },
      "name": "Wall_2",
      "pbrMetallicRoughness": {
        "baseColorTexture": {
          "index": 21
        },
        "metallicFactor": 0.0
      }
    },
    {
      "extensions": {
        "KHR_materials_unlit": {}
      },
      "name": "Wall_3",
      "pbrMetallicRoughness": {
        "baseColorTexture": {
          "index": 22
        },
        "metallicFactor": 0.0
      }
    },
    {
      "extensions": {
        "KHR_materials_unlit": {}
      },
      "name": "Wall_4",
      "pbrMetallicRoughness": {
        "baseColorTexture": {
          "index": 23
        },
        "metallicFactor": 0.0
      }
    },
    {
      "doubleSided": true,
      "extensions": {
        "KHR_materials_unlit": {}
      },
      "name": "Window_1",
      "pbrMetallicRoughness": {
        "baseColorTexture": {
          "index": 24
        },
        "metallicFactor": 0.0
      }
    },
    {
      "doubleSided": true,
      "extensions": {
        "KHR_materials_unlit": {}
      },
      "name": "Withe",
      "pbrMetallicRoughness": {
        "baseColorTexture": {
          "index": 25
        },
        "metallicFactor": 0.0
      }
    },
    {
      "doubleSided": true,
      "extensions": {
        "KHR_materials_unlit": {}
      },
      "name": "Wood",
      "pbrMetallicRoughness": {
        "baseColorTexture": {
          "index": 26
        },
        "metallicFactor": 0.0
      }
    }
  ],
  "meshes": [
    {
      "name": "Object_0",
      "primitives": [
        {
          "attributes": {
            "NORMAL": 1,
            "POSITION": 0,
            "TEXCOORD_0": 2
          },
          "indices": 3,
          "material": 2,
          "mode": 4
        }
      ]
    },
    {
      "name": "Object_1",
      "primitives": [
        {
          "attributes": {
            "NORMAL": 5,
            "POSITION": 4,
            "TEXCOORD_0": 6
          },
          "indices": 7,
          "material": 1,
          "mode": 4
        }
      ]
    },
    {
      "name": "Object_2",
      "primitives": [
        {
          "attributes": {
            "NORMAL": 9,
            "POSITION": 8,
            "TEXCOORD_0": 10
          },
          "indices": 11,
          "material": 5,
          "mode": 4
        }
      ]
    },
    {
      "name": "Object_3",
      "primitives": [
        {
          "attributes": {
            "NORMAL": 13,
            "POSITION": 12,
            "TEXCOORD_0": 14
          },
          "indices": 15,
          "material": 3,
          "mode": 4
        }
      ]
    },
    {
      "name": "Object_4",
      "primitives": [
        {
          "attributes": {
            "NORMAL": 17,
            "POSITION": 16,
            "TEXCOORD_0": 18
          },
          "indices": 19,
          "material": 4,
          "mode": 4
        }
      ]
    },
    {
      "name": "Object_5",
      "primitives": [
        {
          "attributes": {
            "NORMAL": 21,
            "POSITION": 20,
            "TEXCOORD_0": 22
          },
          "indices": 23,
          "material": 6,
          "mode": 4
        }
      ]
    },
    {
      "name": "Object_6",
      "primitives": [
        {
          "attributes": {
            "NORMAL": 25,
            "POSITION": 24,
            "TEXCOORD_0": 26
          },
          "indices": 27,
          "material": 8,
          "mode": 4
        }
      ]
    },
    {
      "name": "Object_7",
      "primitives": [
        {
          "attributes": {
            "NORMAL": 29,
            "POSITION": 28,
            "TEXCOORD_0": 30
          },
          "indices": 31,
          "material": 9,
          "mode": 4
        }
      ]
    },
    {
      "name": "Object_8",
      "primitives": [
        {
          "attributes": {
            "NORMAL": 33,
            "POSITION": 32,
            "TEXCOORD_0": 34
          },
          "indices": 35,
          "material": 10,
          "mode": 4
        }
      ]
    },
    {
      "name": "Object_9",
      "primitives": [
        {
          "attributes": {
            "NORMAL": 37,
            "POSITION": 36,
            "TEXCOORD_0": 38
          },
          "indices": 39,
          "material": 11,
          "mode": 4
        }
      ]
    },
    {
      "name": "Object_10",
      "primitives": [
        {
          "attributes": {
            "NORMAL": 41,
            "POSITION": 40,
            "TEXCOORD_0": 42
          },
          "indices": 43,
          "material": 17,
          "mode": 4
        }
      ]
    },
    {
      "name": "Object_11",
      "primitives": [
        {
          "attributes": {
            "NORMAL": 45,
            "POSITION": 44,
            "TEXCOORD_0": 46
          },
          "indices": 47,
          "material": 16,
          "mode": 4
        }
      ]
    },
    {
      "name": "Object_12",
      "primitives": [
        {
          "attributes": {
            "NORMAL": 49,
            "POSITION": 48,
            "TEXCOORD_0": 50
          },
          "indices": 51,
          "material": 21,
          "mode": 4
        }
      ]
    },
    {
      "name": "Object_13",
      "primitives": [
        {
          "attributes": {
            "NORMAL": 53,
            "POSITION": 52,
            "TEXCOORD_0": 54
          },
          "indices": 55,
          "material": 25,
          "mode": 4
        }
      ]
    },
    {
      "name": "Object_14",
      "primitives": [
        {
          "attributes": {
            "NORMAL": 57,
            "POSITION": 56,
            "TEXCOORD_0": 58
          },
          "indices": 59,
          "material": 22,
          "mode": 4
        }
      ]
    },
    {
      "name": "Object_15",
      "primitives": [
        {
          "attributes": {
            "NORMAL": 61,
            "POSITION": 60,
            "TEXCOORD_0": 62
          },
          "indices": 63,
          "material": 18,
          "mode": 4
        }
      ]
    },
    {
      "name": "Object_16",
      "primitives": [
        {
          "attributes": {
            "NORMAL": 65,
            "POSITION": 64,
            "TEXCOORD_0": 66
          },
          "indices": 67,
          "material": 12,
          "mode": 4
        }
      ]
    },
    {
      "name": "Object_17",
      "primitives": [
        {
          "attributes": {
            "NORMAL": 69,
            "POSITION": 68,
            "TEXCOORD_0": 70
          },
          "indices": 71,
          "material": 13,
          "mode": 4
        }
      ]
    },
    {
      "name": "Object_18",
      "primitives": [
        {
          "attributes": {
            "NORMAL": 73,
            "POSITION": 72,
            "TEXCOORD_0": 74
          },
          "indices": 75,
          "material": 14,
          "mode": 4
        }
      ]
    },
    {
      "name": "Object_19",
      "primitives": [
        {
          "attributes": {
            "NORMAL": 77,
            "POSITION": 76,
            "TEXCOORD_0": 78
          },
          "indices": 79,
          "material": 15,
          "mode": 4
        }
      ]
    },
    {
      "name": "Object_20",
      "primitives": [
        {
          "attributes": {
            "NORMAL": 81,
            "POSITION": 80,
            "TEXCOORD_0": 82
          },
          "indices": 83,
          "material": 20,
          "mode": 4
        }
      ]
    },
    {
      "name": "Object_21",
      "primitives": [
        {
          "attributes": {
            "NORMAL": 85,
            "POSITION": 84,
            "TEXCOORD_0": 86
          },
          "indices": 87,
          "material": 24,
          "mode": 4
        }
      ]
    },
    {
      "name": "Object_22",
      "primitives": [
        {
          "attributes": {
            "NORMAL": 89,
            "POSITION": 88,
            "TEXCOORD_0": 90
          },
          "indices": 91,
          "material": 26,
          "mode": 4
        }
      ]
    },
    {
      "name": "Object_23",
      "primitives": [
        {
          "attributes": {
            "NORMAL": 93,
            "POSITION": 92,
            "TEXCOORD_0": 94
          },
          "indices": 95,
          "material": 23,
          "mode": 4
        }
      ]
    },
    {
      "name": "Object_24",
      "primitives": [
        {
          "attributes": {
            "NORMAL": 97,
            "POSITION": 96,
            "TEXCOORD_0": 98
          },
          "indices": 99,
          "material": 19,
          "mode": 4
        }
      ]
    },
    {
      "name": "Object_25",
      "primitives": [
        {
          "attributes": {
            "NORMAL": 101,
            "POSITION": 100,
            "TEXCOORD_0": 102
          },
          "indices": 103,
          "material": 27,
          "mode": 4
        }
      ]
    },
    {
      "name": "Object_26",
      "primitives": [
        {
          "attributes": {
            "NORMAL": 105,
            "POSITION": 104,
            "TEXCOORD_0": 106
          },
          "indices": 107,
          "material": 0,
          "mode": 4
        }
      ]
    },
    {
      "name": "Object_27",
      "primitives": [
        {
          "attributes": {
            "NORMAL": 109,
            "POSITION": 108,
            "TEXCOORD_0": 110
          },
          "indices": 111,
          "material": 7,
          "mode": 4
        }
      ]
    },
    {
      "name": "Object_28",
      "primitives": [
        {
          "attributes": {
            "NORMAL": 113,
            "POSITION": 112,
            "TEXCOORD_0": 114
          },
          "indices": 115,
          "material": 7,
          "mode": 4
        }
      ]
    }
  ],
  "nodes": [
    {
      "children": [
        1
      ],
      "matrix": [
        1.0,
        0.0,
        0.0,
        0.0,
        0.0,
        2.220446049250313e-16,
        -1.0,
        0.0,
        0.0,
        1.0,
        2.220446049250313e-16,
        0.0,
        0.0,
        0.0,
        0.0,
        1.0
      ],
      "name": "Sketchfab_model"
    },
    {
      "children": [
        2,
        3,
        4,
        5,
        6,
        7,
        8,
        9,
        10,
        11,
        12,
        13,
        14,
        15,
        16,
        17,
        18,
        19,
        20,
        21,
        22,
        23,
        24,
        25,
        26,
        27,
        28,
        29,
        30
      ],
      "name": "Backrooms_Bake.obj.cleaner.materialmerger.gles"
    },
    {
      "mesh": 0,
      "name": "Object_2"
    },
    {
      "mesh": 1,
      "name": "Object_3"
    },
    {
      "mesh": 2,
      "name": "Object_4"
    },
    {
      "mesh": 3,
      "name": "Object_5"
    },
    {
      "mesh": 4,
      "name": "Object_6"
    },
    {
      "mesh": 5,
      "name": "Object_7"
    },
    {
      "mesh": 6,
      "name": "Object_8"
    },
    {
      "mesh": 7,
      "name": "Object_9"
    },
    {
      "mesh": 8,
      "name": "Object_10"
    },
    {
      "mesh": 9,
      "name": "Object_11"
    },
    {
      "mesh": 10,
      "name": "Object_12"
    },
    {
      "mesh": 11,
      "name": "Object_13"
    },
    {
      "mesh": 12,
      "name": "Object_14"
    },
    {
      "mesh": 13,
      "name": "Object_15"
    },
    {
      "mesh": 14,
      "name": "Object_16"
    },
    {
      "mesh": 15,
      "name": "Object_17"
    },
    {
      "mesh": 16,
      "name": "Object_18"
    },
    {
      "mesh": 17,
      "name": "Object_19"
    },
    {
      "mesh": 18,
      "name": "Object_20"
    },
    {
      "mesh": 19,
      "name": "Object_21"
    },
    {
      "mesh": 20,
      "name": "Object_22"
    },
    {
      "mesh": 21,
      "name": "Object_23"
    },
    {
      "mesh": 22,
      "name": "Object_24"
    },
    {
      "mesh": 23,
      "name": "Object_25"
    },
    {
      "mesh": 24,
      "name": "Object_26"
    },
    {
      "mesh": 25,
      "name": "Object_27"
    },
    {
      "mesh": 26,
      "name": "Object_28"
    },
    {
      "mesh": 27,
      "name": "Object_29"
    },
    {
      "mesh": 28,
      "name": "Object_30"
    }
  ],
  "samplers": [
    {
      "magFilter": 9729,
      "minFilter": 9987,
      "wrapS": 10497,
      "wrapT": 10497
    }
  ],
  "scene": 0,
  "scenes": [
    {
      "name": "Sketchfab_Scene",
      "nodes": [
        0
      ]
    }
  ],
  "textures": [
    {
      "sampler": 0,
      "source": 0
    },
    {
      "sampler": 0,
      "source": 1
    },
    {
      "sampler": 0,
      "source": 2
    },
    {
      "sampler": 0,
      "source": 3
    },
    {
      "sampler": 0,
      "source": 4
    },
    {
      "sampler": 0,
      "source": 5
    },
    {
      "sampler": 0,
      "source": 6
    },
    {
      "sampler": 0,
      "source": 7
    },
    {
      "sampler": 0,
      "source": 8
    },
    {
      "sampler": 0,
      "source": 9
    },
    {
      "sampler": 0,
      "source": 10
    },
    {
      "sampler": 0,
      "source": 11
    },
    {
      "sampler": 0,
      "source": 12
    },
    {
      "sampler": 0,
      "source": 13
    },
    {
      "sampler": 0,
      "source": 14
    },
    {
      "sampler": 0,
      "source": 15
    },
    {
      "sampler": 0,
      "source": 16
    },
    {
      "sampler": 0,
      "source": 17
    },
    {
      "sampler": 0,
      "source": 18
    },
    {
      "sampler": 0,
      "source": 19
    },
    {
      "sampler": 0,
      "source": 20
    },
    {
      "sampler": 0,
      "source": 21
    },
    {
      "sampler": 0,
      "source": 22
    },
    {
      "sampler": 0,
      "source": 23
    },
    {
      "sampler": 0,
      "source": 24
    },
    {
      "sampler": 0,
      "source": 25
    },
    {
      "sampler": 0,
      "source": 26
    }
  ]
}
